<svg width="96" height="96" viewBox="0 0 96 96" fill="none" xmlns="http://www.w3.org/2000/svg">
<path d="M37.7814 70.5259C37.2034 70.5259 36.7044 70.0927 36.6361 69.5046C36.3216 66.8012 35.0821 64.3095 33.1455 62.4886C28.7884 58.3954 26.2896 52.6195 26.2896 46.6426C26.2896 40.8804 28.521 35.4506 32.5724 31.3537C36.6207 27.2602 42.0183 24.9683 47.771 24.8999C59.679 24.757 69.5462 34.322 69.7734 46.2182C69.8909 52.3491 67.3981 58.2755 62.934 62.4777C60.979 64.3176 59.733 66.8123 59.4259 69.5025C59.3536 70.1361 58.7812 70.591 58.1479 70.5185C57.5143 70.4463 57.0596 69.8738 57.1318 69.2405C57.5008 66.0085 58.9994 63.0098 61.3514 60.7963C65.3414 57.0402 67.5696 51.7428 67.4648 46.2625C67.2632 35.7081 58.5674 27.2076 48.0312 27.2076C47.9537 27.2076 47.8765 27.2081 47.7985 27.209C37.2115 27.3348 28.5986 36.0528 28.5986 46.6428C28.5986 52.0635 30.7751 57.0937 34.727 60.8065C37.0601 63 38.5526 65.9944 38.9299 69.2382C39.0036 69.8715 38.5499 70.4446 37.9165 70.5183C37.871 70.5234 37.8259 70.5259 37.7814 70.5259Z" fill="#FF8F8F"/>
<path d="M48.0333 86.7032C45.0124 86.7032 42.1709 85.5263 40.0322 83.389C38.3688 81.7258 37.2805 79.6276 36.8841 77.3211C36.776 76.6926 37.1979 76.0957 37.8264 75.9879C38.4563 75.8791 39.0519 76.3019 39.1597 76.9302C39.4746 78.7638 40.341 80.4325 41.6645 81.7561C43.3667 83.4572 45.6287 84.3942 48.0331 84.3942C52.4302 84.3942 56.1621 81.255 56.9067 76.9297C57.015 76.3012 57.6114 75.8805 58.2404 75.9877C58.8689 76.0959 59.2906 76.6931 59.1825 77.3214C58.2464 82.7578 53.5577 86.7032 48.0333 86.7032Z" fill="#FFE4BB"/>
<path d="M48.0346 60.7994C46.292 60.7994 44.7565 59.7507 44.1224 58.1276C43.8904 57.5338 44.1838 56.8641 44.7777 56.6321C45.3718 56.4002 46.0412 56.6935 46.2733 57.2874C46.5587 58.0182 47.2502 58.4901 48.0348 58.4901C48.5403 58.4901 49.015 58.2937 49.3718 57.9372C49.556 57.7529 49.7027 57.5289 49.7955 57.2897C50.0264 56.6951 50.6958 56.4005 51.2895 56.6309C51.8841 56.8616 52.1789 57.5305 51.9482 58.1249C51.7374 58.6684 51.4199 59.1542 51.005 59.5696C50.2114 60.3628 49.1568 60.7994 48.0346 60.7994Z" fill="#FF8F8F"/>
<path d="M54.5847 54.9869C53.9472 54.9869 53.4302 54.4699 53.4302 53.8324V51.8949C53.4302 51.2574 53.9472 50.7404 54.5847 50.7404C55.2222 50.7404 55.7392 51.2574 55.7392 51.8949V53.8324C55.7392 54.4702 55.2222 54.9869 54.5847 54.9869Z" fill="#FF8F8F"/>
<path d="M41.4846 54.987C40.8471 54.987 40.3301 54.47 40.3301 53.8325V51.8949C40.3301 51.2574 40.8471 50.7404 41.4846 50.7404C42.1221 50.7404 42.6391 51.2574 42.6391 51.8949V53.8325C42.6391 54.4702 42.1221 54.987 41.4846 54.987Z" fill="#FF8F8F"/>
<path d="M58.8409 78.2805H37.2264C35.5454 78.2805 34.1777 76.9128 34.1777 75.2318V71.2654C34.1777 69.5844 35.5454 68.2167 37.2264 68.2167H58.8409C60.5218 68.2167 61.8895 69.5844 61.8895 71.2654V75.2318C61.8895 76.9128 60.5218 78.2805 58.8409 78.2805ZM37.2264 70.5258C36.8186 70.5258 36.4868 70.8576 36.4868 71.2654V75.2318C36.4868 75.6396 36.8186 75.9714 37.2264 75.9714H58.8409C59.2486 75.9714 59.5804 75.6396 59.5804 75.2318V71.2654C59.5804 70.8576 59.2486 70.5258 58.8409 70.5258H37.2264Z" fill="#FFE4BB"/>
<path d="M82.9619 47.4626H75.9768C75.3393 47.4626 74.8223 46.9456 74.8223 46.3081C74.8223 45.6706 75.3393 45.1536 75.9768 45.1536H82.9619C83.5994 45.1536 84.1164 45.6706 84.1164 46.3081C84.1164 46.9456 83.5997 47.4626 82.9619 47.4626Z" fill="#FFE4BB"/>
<path d="M20.0899 47.4626H13.0378C12.4003 47.4626 11.8833 46.9456 11.8833 46.3081C11.8833 45.6706 12.4003 45.1536 13.0378 45.1536H20.0899C20.7274 45.1536 21.2444 45.6706 21.2444 46.3081C21.2444 46.9456 20.7274 47.4626 20.0899 47.4626Z" fill="#FFE4BB"/>
<path d="M48.0002 19.586C47.3627 19.586 46.8457 19.069 46.8457 18.4315V11.1545C46.8457 10.517 47.3627 10 48.0002 10C48.6378 10 49.1547 10.517 49.1547 11.1545V18.4315C49.1547 19.0692 48.638 19.586 48.0002 19.586Z" fill="#FFE4BB"/>
<path d="M72.628 72.0906C72.3324 72.0906 72.0371 71.9779 71.8115 71.7526L66.9925 66.9336C66.5416 66.4826 66.5416 65.7516 66.9925 65.3009C67.4435 64.8502 68.1743 64.8502 68.6252 65.3009L73.4442 70.1199C73.8952 70.5708 73.8952 71.3018 73.4442 71.7526C73.2189 71.9779 72.9235 72.0906 72.628 72.0906Z" fill="#FFE4BB"/>
<path d="M28.2913 27.7542C27.9957 27.7542 27.7004 27.6416 27.4748 27.4162L22.3656 22.307C21.9146 21.856 21.9146 21.125 22.3656 20.6743C22.8167 20.2235 23.5476 20.2235 23.9983 20.6743L29.1075 25.7835C29.5585 26.2344 29.5585 26.9655 29.1075 27.4162C28.8821 27.6413 28.5868 27.7542 28.2913 27.7542Z" fill="#FFE4BB"/>
<path d="M23.372 72.0907C23.0765 72.0907 22.7811 71.978 22.5555 71.7526C22.1045 71.3017 22.1045 70.5707 22.5555 70.1199L27.408 65.2675C27.8589 64.8167 28.5897 64.8167 29.0407 65.2675C29.4916 65.7184 29.4916 66.4495 29.0407 66.9002L24.1882 71.7526C23.9629 71.978 23.6676 72.0907 23.372 72.0907Z" fill="#FFE4BB"/>
<path d="M67.7421 27.7208C67.4466 27.7208 67.1512 27.6081 66.9256 27.3827C66.4747 26.9318 66.4747 26.2007 66.9256 25.75L72.0014 20.6743C72.4524 20.2235 73.1832 20.2235 73.6341 20.6743C74.0851 21.1252 74.0851 21.8563 73.6341 22.307L68.5584 27.3827C68.333 27.6079 68.0377 27.7208 67.7421 27.7208Z" fill="#FFE4BB"/>
</svg>
