<svg width="96" height="96" viewBox="0 0 96 96" fill="none" xmlns="http://www.w3.org/2000/svg">
<path d="M54.4545 45.8344C54.2432 45.8344 54.0292 45.7745 53.8395 45.6496C47.7502 41.6414 42.1651 45.5816 42.109 45.6218C41.6072 45.9842 40.906 45.8719 40.5433 45.3687C40.1809 44.8661 40.2939 44.1644 40.7961 43.8013C40.8666 43.7501 42.5579 42.5425 45.1473 41.9382C47.5508 41.3769 51.2238 41.2408 55.0718 43.7735C55.5895 44.1141 55.7331 44.8102 55.3928 45.3285C55.1773 45.6563 54.8195 45.8344 54.4545 45.8344Z" fill="#FFE4BB"/>
<path d="M65.2008 76.4718C64.9115 76.4718 64.6224 76.3604 64.4028 76.1381L50.2949 61.8385C49.6935 61.2291 48.8912 60.8934 48.0357 60.8934C47.1801 60.8934 46.3776 61.2291 45.7764 61.8385L31.6685 76.1381C31.2332 76.5793 30.5232 76.5834 30.0824 76.148C29.6417 75.7123 29.6374 75.0014 30.0726 74.5602L44.1805 60.2606C45.2065 59.2207 46.5756 58.6479 48.0359 58.6479C49.4961 58.6479 50.8651 59.2207 51.8913 60.2606L65.9992 74.5602C66.4343 75.0014 66.4301 75.7123 65.9893 76.148C65.7704 76.364 65.4855 76.4718 65.2008 76.4718Z" fill="#FFE4BB"/>
<path d="M50.8248 72.8204C48.9049 72.8204 47.3433 71.2568 47.3433 69.3349C47.3433 67.413 48.9051 65.8494 50.8248 65.8494C52.7448 65.8494 54.3065 67.413 54.3065 69.3349C54.3065 71.2568 52.7448 72.8204 50.8248 72.8204ZM50.8248 68.0947C50.1417 68.0947 49.5863 68.6511 49.5863 69.3346C49.5863 70.0182 50.142 70.5746 50.8248 70.5746C51.5075 70.5746 52.0634 70.0182 52.0634 69.3346C52.0634 68.6511 51.5078 68.0947 50.8248 68.0947Z" fill="#FFE4BB"/>
<path d="M41.3849 72.606C40.9733 72.606 40.5772 72.3785 40.3807 71.9849C40.1039 71.43 40.3286 70.7557 40.8824 70.4786L41.3116 70.264C41.866 69.9866 42.5392 70.2116 42.8162 70.7662C43.093 71.3211 42.8682 71.9954 42.3144 72.2725L41.8854 72.4872C41.7245 72.5678 41.5534 72.606 41.3849 72.606Z" fill="#FFE4BB"/>
<path d="M65.0932 76.5661C64.4736 76.5661 63.9716 76.0636 63.9716 75.4434V65.0518C63.9716 60.1159 61.3271 55.6867 57.2343 53.7683L51.4202 51.0427C50.4568 50.5909 49.8584 49.6166 49.8584 48.4999C49.8584 47.3832 50.4568 46.4089 51.42 45.9573L57.2343 43.2318C61.3271 41.3134 63.9716 36.8841 63.9716 31.9483V21.5567C63.9716 20.9365 64.4736 20.434 65.0932 20.434C65.7127 20.434 66.2147 20.9365 66.2147 21.5567V31.9483C66.2147 37.7518 63.063 42.9791 58.1854 45.2655L52.3714 47.9911C52.1143 48.1115 52.1015 48.4362 52.1015 48.5002C52.1015 48.5641 52.1145 48.8889 52.3716 49.0094L58.1854 51.735C63.063 54.0214 66.2147 59.2488 66.2147 65.0523V75.4438C66.2147 76.0635 65.7127 76.5661 65.0932 76.5661Z" fill="#FF8F8F"/>
<path d="M30.9062 76.5661C30.2867 76.5661 29.7847 76.0635 29.7847 75.4433V65.0518C29.7847 59.2482 32.9364 54.0212 37.814 51.7346L43.6281 49.009C43.8852 48.8886 43.8979 48.5639 43.8979 48.4997C43.8979 48.4359 43.8849 48.1112 43.6278 47.9906L37.814 45.265C32.9364 42.9784 29.7847 37.7513 29.7847 31.9478V21.5563C29.7847 20.936 30.2867 20.4335 30.9062 20.4335C31.5257 20.4335 32.0278 20.936 32.0278 21.5563V31.9478C32.0278 36.8837 34.6723 41.3127 38.7651 43.2313L44.5792 45.9569C45.5426 46.4087 46.141 47.383 46.141 48.4995C46.141 49.6164 45.5426 50.5907 44.5794 51.0423L38.7651 53.7679C34.6723 55.6864 32.0278 60.1155 32.0278 65.0513V75.4429C32.0278 76.0635 31.5257 76.5661 30.9062 76.5661Z" fill="#FF8F8F"/>
<path d="M74.8585 86.0001H21.1415C19.302 86.0001 17.8052 84.5017 17.8052 82.6599V77.674C17.8052 75.8325 19.302 74.334 21.1415 74.334H74.8585C76.698 74.334 78.1948 75.8325 78.1948 77.674V82.6599C78.1948 84.5017 76.698 86.0001 74.8585 86.0001ZM21.1415 76.5796C20.5386 76.5796 20.0483 77.0707 20.0483 77.674V82.6599C20.0483 83.2635 20.5388 83.7546 21.1415 83.7546H74.8585C75.4614 83.7546 75.9517 83.2635 75.9517 82.6599V77.674C75.9517 77.0704 75.4612 76.5796 74.8585 76.5796H21.1415Z" fill="#FFE4BB"/>
<path d="M74.8585 22.6659H21.1415C19.302 22.6659 17.8052 21.1675 17.8052 19.3259V14.34C17.8052 12.4984 19.302 11 21.1415 11H74.8585C76.698 11 78.1948 12.4984 78.1948 14.34V19.3259C78.1948 21.1675 76.698 22.6659 74.8585 22.6659ZM21.1415 13.2455C20.5386 13.2455 20.0483 13.7366 20.0483 14.34V19.3259C20.0483 19.9295 20.5388 20.4204 21.1415 20.4204H74.8585C75.4614 20.4204 75.9517 19.9293 75.9517 19.3259V14.34C75.9517 13.7364 75.4612 13.2455 74.8585 13.2455H21.1415Z" fill="#FFE4BB"/>
<path d="M22.8242 76.566C22.2046 76.566 21.7026 76.0634 21.7026 75.4432V21.5432C21.7026 20.923 22.2046 20.4204 22.8242 20.4204C23.4437 20.4204 23.9457 20.923 23.9457 21.5432V75.4432C23.9457 76.0634 23.4437 76.566 22.8242 76.566Z" fill="#FFE4BB"/>
<path d="M72.8178 76.566C72.1983 76.566 71.6963 76.0634 71.6963 75.4432V21.5432C71.6963 20.923 72.1983 20.4204 72.8178 20.4204C73.4374 20.4204 73.9394 20.923 73.9394 21.5432V75.4432C73.9394 76.0634 73.4374 76.566 72.8178 76.566Z" fill="#FFE4BB"/>
<path d="M48.0361 60.8936C47.4166 60.8936 46.9146 60.3911 46.9146 59.7708V51.7171C46.9146 51.0968 47.4166 50.5943 48.0361 50.5943C48.6556 50.5943 49.1576 51.0968 49.1576 51.7171V59.7708C49.1576 60.3911 48.6554 60.8936 48.0361 60.8936Z" fill="#FFE4BB"/>
</svg>
