<svg width="96" height="96" viewBox="0 0 96 96" fill="none" xmlns="http://www.w3.org/2000/svg">
<path d="M45.1381 42.6782C44.4076 42.6782 43.6751 42.6487 42.9408 42.5891C33.0931 41.7925 23.6937 38.2609 15.7587 32.3762C15.254 32.0017 15.1485 31.2895 15.523 30.7849C15.8976 30.2806 16.61 30.1751 17.1147 30.5493C24.7072 36.1804 33.7014 39.5596 43.1245 40.3221C48.1849 40.7304 53.1736 39.5921 57.5532 37.0282C63.0026 33.8381 66.9782 28.7438 68.7474 22.6834L69.3599 20.5852C69.5361 19.9826 70.1678 19.6362 70.771 19.8122C71.374 19.9881 71.7203 20.6198 71.5442 21.2228L70.9316 23.321C68.9989 29.9412 64.6557 35.5062 58.7027 38.9911C54.5541 41.4196 49.904 42.6782 45.1381 42.6782Z" fill="#FF8F8F"/>
<path d="M22.5471 48.7964C22.1368 48.7964 21.7409 48.574 21.5377 48.1855C16.9094 39.3289 23.625 35.2715 23.6932 35.2314C24.2364 34.9141 24.9324 35.0972 25.2496 35.6393C25.5659 36.18 25.3852 36.8738 24.8469 37.192C24.6325 37.3212 19.959 40.2516 23.5544 47.132C23.8452 47.6889 23.6297 48.3761 23.0729 48.6668C22.905 48.7548 22.7248 48.7964 22.5471 48.7964Z" fill="#FF8F8F"/>
<path d="M44.0618 55.0085C43.4531 55.0085 42.8452 54.9937 42.2406 54.9641C42.0311 54.9573 41.8559 54.9461 41.6802 54.935L40.4583 54.8524C40.1684 54.8317 39.8783 54.811 39.5893 54.7853L37.9715 54.6129C37.6434 54.5781 37.3036 54.5419 36.9589 54.4869C36.9345 54.4828 36.9104 54.4784 36.8863 54.4728C30.1098 52.9348 25.0073 47.5111 23.8874 40.6557L23.2029 36.4647C23.1369 36.0612 23.293 35.6533 23.6111 35.3965L29.325 30.7849C31.4141 29.1013 33.9125 27.9779 36.5509 27.5356C37.5043 27.3757 38.4798 27.3056 39.4458 27.3238C40.1669 27.3386 40.8049 27.7244 41.153 28.3555C41.4015 28.8056 41.4654 29.3138 41.3471 29.792L42.8464 28.9171C43.7939 28.3643 44.8556 28.0873 45.9098 28.1193C46.0359 28.1232 46.1615 28.125 46.2873 28.1255C46.2992 28.1255 46.3111 28.1255 46.3231 28.1255C47.6622 28.1255 49.0174 27.9303 50.351 27.5445C50.4475 27.5183 50.5242 27.4917 50.6011 27.4658C50.6881 27.4364 50.7752 27.4073 50.8635 27.3809C50.929 27.3584 50.9938 27.3338 51.0585 27.3093C51.1588 27.2715 51.2594 27.234 51.3613 27.2001L51.8446 27.0135L52.3471 26.7906C52.3607 26.7845 52.3744 26.7788 52.3883 26.7734C52.4424 26.7517 52.5175 26.7124 52.5972 26.6708C52.6802 26.6276 52.7635 26.5841 52.8493 26.5441C52.9598 26.4933 53.0747 26.4276 53.1962 26.358L53.2818 26.3089C53.2916 26.3034 53.3017 26.2977 53.3117 26.2925L53.5722 26.1544C53.6052 26.1371 53.6252 26.1232 53.6461 26.1103C53.6918 26.0818 53.7377 26.0534 53.7848 26.0266L54.0284 25.8805C54.0371 25.8755 54.0457 25.8705 54.0543 25.8655C54.1096 25.8343 54.1522 25.8078 54.1841 25.7841C54.203 25.7702 54.2223 25.7568 54.2419 25.7441C55.4959 24.9295 56.6522 23.9167 57.6787 22.7338C58.1677 22.1686 58.638 21.5376 59.1147 20.8069C59.1655 20.7243 59.2191 20.6425 59.2735 20.5606C59.3345 20.4687 59.3921 20.3818 59.4315 20.3094C59.4363 20.3003 59.4415 20.2915 59.4467 20.2824L59.7029 19.8445C59.7075 19.837 59.7121 19.8294 59.7168 19.8217L59.7453 19.7631C59.9924 19.2305 60.3164 18.5369 60.6543 17.845C63.1719 12.6865 69.4169 10.5369 74.5771 13.0523C78.528 14.979 80.851 19.2141 80.3577 23.591C80.3574 23.5919 80.3574 23.5928 80.3574 23.5935C80.2726 24.331 80.1758 25.0684 80.0926 25.6929C80.0907 25.7056 80.0889 25.7183 80.0869 25.7311C80.078 25.7943 80.0719 25.8364 80.0621 25.8876L79.809 27.126C79.7264 27.5497 79.6159 27.9662 79.5094 28.3688L79.4553 28.5736C78.9508 30.4569 78.2656 32.3408 77.418 34.1779C76.5021 36.0939 75.4848 37.8468 74.3878 39.4014C73.7612 40.3111 73.081 41.1659 72.5595 41.8076C72.554 41.8142 72.5486 41.821 72.5431 41.8276C72.2293 42.1961 71.9094 42.5587 71.5874 42.9227L71.5567 42.9575C71.5504 42.9646 71.5439 42.9718 71.5375 42.9787C71.1857 43.3572 70.8302 43.7241 70.4957 44.0678C70.3398 44.2328 70.1585 44.4131 69.9357 44.6238L69.3943 45.1349C69.0227 45.495 68.6216 45.8412 68.2434 46.1642C67.8038 46.5386 67.4302 46.8487 67.0302 47.1496C66.9178 47.2345 66.8046 47.3216 66.6915 47.409C66.4048 47.6301 66.1083 47.8587 65.7898 48.0757C65.3888 48.3566 64.9735 48.6467 64.5533 48.9301C64.5439 48.9363 64.5348 48.9424 64.5255 48.9483L64.2406 49.1292C63.907 49.3414 63.5731 49.5534 63.2336 49.7585C62.7418 50.0431 62.3141 50.289 61.8726 50.5254C61.7297 50.5991 61.6023 50.6657 61.4751 50.7324C61.1556 50.8998 60.825 51.0732 60.4839 51.2358C58.917 52.0006 57.2692 52.6634 55.5956 53.2014C54.8162 53.4521 53.9718 53.3499 53.28 52.9214L49.3685 50.4969L50.0705 51.7865C50.39 52.3729 50.3975 53.0781 50.0905 53.6718C49.7851 54.2628 49.2094 54.6622 48.5502 54.7409C48.5452 54.7416 48.527 54.7437 48.522 54.7444C47.0459 54.92 45.5506 55.0085 44.0618 55.0085ZM37.3534 52.2462C37.6281 52.2888 37.9118 52.3188 38.2115 52.3506L39.8112 52.5212C40.0679 52.5442 40.3441 52.5638 40.6202 52.5831L41.8254 52.6646C41.9799 52.6744 42.1342 52.6844 42.3344 52.6909C44.1812 52.7817 46.0405 52.726 47.8832 52.5272L45.3148 47.8089C45.0679 47.3558 45.1576 46.793 45.5328 46.4388C45.9078 46.0841 46.4753 46.0268 46.9135 46.2987L54.4787 50.9878C54.6025 51.0645 54.7552 51.082 54.8988 51.0358C56.4693 50.5308 58.0157 49.9089 59.495 49.1869C59.8065 49.0384 60.1039 48.8826 60.4188 48.7176C60.5503 48.6487 60.6818 48.58 60.8136 48.512C61.2095 48.3 61.6201 48.0639 62.0756 47.8005C62.3817 47.6155 62.7007 47.4126 63.0195 47.2097L63.2933 47.0357C63.6979 46.7627 64.0977 46.4834 64.4959 46.2042C64.7715 46.0166 65.0289 45.8183 65.3015 45.6081C65.4207 45.5162 65.5402 45.4238 65.6601 45.3335C66.016 45.0655 66.3596 44.7803 66.7662 44.434C67.1302 44.1233 67.4858 43.8163 67.8208 43.4917L68.3718 42.9714C68.5625 42.7908 68.7158 42.6386 68.8532 42.493C69.1861 42.1507 69.5282 41.7981 69.8601 41.4409L69.8815 41.4171C70.1909 41.0665 70.4993 40.718 70.801 40.3634C71.2952 39.7551 71.9353 38.9503 72.5208 38.1007C73.5518 36.6396 74.504 34.998 75.3582 33.2109C76.1455 31.5051 76.7861 29.744 77.2558 27.9904L77.3099 27.7858C77.4116 27.4023 77.5077 27.0402 77.5785 26.6785L77.8306 25.4367C77.8335 25.4165 77.8363 25.3967 77.8397 25.3757C77.9209 24.7657 78.0151 24.0482 78.0968 23.3362C78.4825 19.9134 76.6673 16.6023 73.5795 15.0966C69.5477 13.1299 64.667 14.8107 62.6997 18.8427C62.3702 19.5169 62.0523 20.1973 61.8123 20.7146L61.7624 20.8235C61.7422 20.8674 61.7195 20.9102 61.6937 20.9514L61.4204 21.4148C61.3367 21.5658 61.2487 21.6988 61.1704 21.8167C61.1295 21.8785 61.0884 21.9399 61.0507 22.002C61.0443 22.0127 61.0377 22.0232 61.0309 22.0335C60.4943 22.8574 59.9605 23.5735 59.399 24.2225C58.2387 25.5594 56.9303 26.7062 55.5081 27.6337C55.411 27.7037 55.3047 27.7711 55.1848 27.8393L54.9425 27.9844C54.9338 27.9894 54.9251 27.9944 54.9165 27.9994C54.8947 28.0115 54.8742 28.0249 54.8535 28.0379C54.7793 28.0843 54.7047 28.1295 54.6266 28.1696L54.3294 28.3302C54.1751 28.4187 54.0006 28.519 53.8031 28.6089C53.7587 28.6298 53.7056 28.658 53.6523 28.686C53.5367 28.7465 53.4063 28.8145 53.2527 28.8773L52.7426 29.1036C52.7255 29.1113 52.7082 29.1184 52.6907 29.1252L52.1542 29.3325C52.1346 29.34 52.1148 29.347 52.0947 29.3536C52.0162 29.3789 51.9393 29.4084 51.8624 29.4375C51.7653 29.4741 51.6679 29.5108 51.5686 29.544C51.5548 29.5488 51.5411 29.5529 51.5272 29.557C51.4601 29.5768 51.3939 29.5995 51.3279 29.6216C51.2077 29.6621 51.0872 29.7021 50.9648 29.7351C49.43 30.1789 47.8422 30.4018 46.2803 30.4005C46.1336 30.4 45.9883 30.3975 45.8427 30.3934C45.2153 30.3754 44.5726 30.544 43.9928 30.8818L38.8061 33.9083C38.3563 34.1699 37.7872 34.0947 37.4224 33.7246C37.0574 33.3542 36.9898 32.7839 37.2581 32.3388L38.9115 29.597C38.2468 29.6082 37.5812 29.6686 36.927 29.7785C34.6732 30.1566 32.5384 31.1168 30.7533 32.5551L25.5548 36.7507L26.1325 40.289C27.1007 46.2136 31.503 50.9032 37.3534 52.2462ZM79.2273 23.4636H79.2295H79.2273Z" fill="#FF8F8F"/>
<path d="M84.8623 84.0001H16.9886C13.1349 84.0001 10 80.8662 10 77.0137V70.2413C10 66.3888 13.1349 63.2548 16.9886 63.2548H84.8623C85.4908 63.2548 86 63.7639 86 64.3922C86 65.0205 85.4908 65.5296 84.8623 65.5296H16.9886C14.3898 65.5296 12.2755 67.6433 12.2755 70.2413V77.0137C12.2755 79.6117 14.3898 81.7253 16.9886 81.7253H84.8623C85.4908 81.7253 86 82.2344 86 82.8627C86 83.491 85.4908 84.0001 84.8623 84.0001Z" fill="#FFE4BB"/>
<path d="M26.5074 84.0001C22.6539 84.0001 19.519 80.8662 19.519 77.0137V70.2413C19.519 66.3888 22.6539 63.2548 26.5074 63.2548C27.1359 63.2548 27.6451 63.7639 27.6451 64.3922C27.6451 65.0205 27.1359 65.5296 26.5074 65.5296C23.9086 65.5296 21.7945 67.6433 21.7945 70.2413V77.0137C21.7945 79.6117 23.9086 81.7253 26.5074 81.7253C27.1359 81.7253 27.6451 82.2344 27.6451 82.8627C27.6451 83.491 27.1356 84.0001 26.5074 84.0001Z" fill="#FFE4BB"/>
<path d="M84.7342 84.0001C80.8805 84.0001 77.7456 80.8662 77.7456 77.0137V70.2413C77.7456 66.3888 80.8805 63.2548 84.7342 63.2548C85.3627 63.2548 85.8719 63.7639 85.8719 64.3922C85.8719 65.0205 85.3627 65.5296 84.7342 65.5296C82.1354 65.5296 80.0211 67.6433 80.0211 70.2413V77.0137C80.0211 79.6117 82.1354 81.7253 84.7342 81.7253C85.3627 81.7253 85.8719 82.2344 85.8719 82.8627C85.8719 83.491 85.3627 84.0001 84.7342 84.0001Z" fill="#FFE4BB"/>
<path d="M78.8834 71.5323H36.0806C35.4521 71.5323 34.9429 71.0232 34.9429 70.3949C34.9429 69.7666 35.4521 69.2575 36.0806 69.2575H78.8834C79.5119 69.2575 80.0211 69.7666 80.0211 70.3949C80.0211 71.0232 79.5119 71.5323 78.8834 71.5323Z" fill="#FFE4BB"/>
<path d="M56.7514 77.9165H29.961C29.3325 77.9165 28.8232 77.4074 28.8232 76.7792C28.8232 76.1509 29.3325 75.6418 29.961 75.6418H56.7514C57.3799 75.6418 57.8891 76.1509 57.8891 76.7792C57.8891 77.4074 57.3797 77.9165 56.7514 77.9165Z" fill="#FFE4BB"/>
</svg>
