<svg width="96" height="96" viewBox="0 0 96 96" fill="none" xmlns="http://www.w3.org/2000/svg">
<path d="M39.9886 47.4058C31.4696 47.4058 24.5391 40.9187 24.5391 32.9451C24.5391 24.9714 31.4696 18.4844 39.9886 18.4844C48.5076 18.4844 55.4381 24.9714 55.4381 32.9451C55.4381 40.9187 48.5076 47.4058 39.9886 47.4058ZM39.9886 20.6334C32.6585 20.6334 26.6947 26.1564 26.6947 32.9451C26.6947 39.7337 32.6585 45.2567 39.9886 45.2567C47.3188 45.2567 53.2825 39.7337 53.2825 32.9451C53.2825 26.1564 47.3188 20.6334 39.9886 20.6334Z" fill="#FFE4BB"/>
<path d="M23.1132 59.7969C22.562 59.7969 22.0921 59.3778 22.041 58.8199C21.9761 58.1109 21.9434 57.3897 21.9434 56.676C21.9434 52.1233 23.2991 49.4825 25.0712 46.5033C25.3748 45.9927 26.0357 45.8242 26.5483 46.1272C27.0603 46.43 27.229 47.0891 26.9255 47.5998C24.9712 50.8852 24.0992 52.9754 24.0992 56.676C24.0992 57.3248 24.1292 57.9803 24.188 58.6246C24.2421 59.2156 23.8054 59.7384 23.2126 59.7923C23.1792 59.7956 23.146 59.7969 23.1132 59.7969Z" fill="#FFE4BB"/>
<path d="M39.9898 77.3716C37.8186 77.3716 35.7021 76.9366 33.6999 76.0787C33.153 75.8445 32.9002 75.2126 33.1352 74.6674C33.3701 74.1222 34.0045 73.8706 34.5508 74.1044C36.2829 74.8462 38.1126 75.2225 39.9896 75.2225C40.2484 75.2225 40.4871 75.2159 40.7186 75.2019C41.3123 75.1662 41.8234 75.6177 41.859 76.2102C41.8945 76.8027 41.4416 77.3116 40.8475 77.3471C40.5727 77.3636 40.2922 77.3716 39.9898 77.3716Z" fill="#FFE4BB"/>
<path d="M25.0976 82.0347C21.8561 82.0349 18.5038 80.7233 15.9133 78.1406C13.5628 75.7975 12.1789 72.7637 12.0161 69.599C11.8512 66.3924 12.9553 63.4355 15.1248 61.273C17.2943 59.1104 20.2609 58.0094 23.4765 58.1738C26.6514 58.336 29.6942 59.7158 32.0445 62.0591C34.3951 64.4022 35.779 67.4357 35.9418 70.6006C36.1065 73.8072 35.0025 76.7644 32.833 78.9267C30.7455 81.0079 27.9649 82.0342 25.0976 82.0347ZM22.8544 60.3067C20.4547 60.3067 18.2672 61.1792 16.6489 62.7921C13.0422 66.3879 13.3957 72.5916 17.4374 76.621C21.4793 80.65 27.7014 81.0027 31.309 77.4071C34.9156 73.8113 34.5621 67.6077 30.5204 63.5782C28.548 61.6118 26.0071 60.4546 23.3662 60.3198C23.1946 60.3113 23.0238 60.3067 22.8544 60.3067Z" fill="#FFE4BB"/>
<path d="M53.2056 27.2596C52.7997 27.2596 52.411 27.03 52.2282 26.6391C51.9767 26.1012 52.2099 25.4616 52.7492 25.2108C54.6072 24.3467 55.8077 22.4685 55.8077 20.4258C55.8077 17.5162 53.4332 15.149 50.5148 15.149C47.7748 15.149 45.5098 17.1956 45.2468 19.9096C45.1895 20.5004 44.6658 20.9304 44.0702 20.8756C43.4778 20.8184 43.0439 20.2934 43.1013 19.7027C43.4718 15.8814 46.659 13 50.5151 13C54.6223 13 57.9636 16.3312 57.9636 20.4258C57.9636 23.3002 56.2746 25.9428 53.6609 27.1583C53.5132 27.2273 53.3582 27.2596 53.2056 27.2596Z" fill="#FFE4BB"/>
<path d="M26.7776 27.3271C26.6254 27.3271 26.4707 27.2949 26.3239 27.2266C23.7054 26.0124 22.0132 23.3684 22.0132 20.4908C22.0132 16.3962 25.3547 13.065 29.4619 13.065C33.2824 13.065 36.467 15.9176 36.8693 19.7008C36.9322 20.2909 36.5032 20.82 35.9112 20.8826C35.3182 20.9483 34.7884 20.5174 34.7258 19.9275C34.44 17.2404 32.177 15.214 29.4619 15.214C26.5433 15.214 24.1689 17.5812 24.1689 20.4908C24.1689 22.5358 25.3715 24.415 27.2329 25.2781C27.7727 25.5282 28.0068 26.1673 27.7557 26.7054C27.5731 27.097 27.184 27.3271 26.7776 27.3271Z" fill="#FFE4BB"/>
<path d="M23.0248 57.9299C23.0229 57.9299 23.021 57.9299 23.0195 57.9299C21.011 57.92 19.0884 57.3909 17.4593 56.4C15.2933 55.0818 13.8473 53.0733 13.3872 50.7444C12.4116 45.8027 16.1941 40.8815 21.8192 39.775C24.5722 39.2338 27.3379 39.6742 29.6081 41.0141C30.1203 41.3165 30.2895 41.9759 29.9864 42.4865C29.6828 42.9969 29.022 43.1653 28.5095 42.8636C26.696 41.7929 24.4683 41.4444 22.2363 41.8834C17.7768 42.7609 14.7561 46.5496 15.5024 50.3294C15.8443 52.0607 16.9379 53.5652 18.5822 54.566C19.8758 55.353 21.4139 55.7731 23.0298 55.7811C23.6252 55.7841 24.1053 56.2674 24.1025 56.8608C24.0994 57.4522 23.6174 57.9299 23.0248 57.9299Z" fill="#FFE4BB"/>
<path d="M50.9639 43.0132C50.5957 43.0132 50.237 42.825 50.0354 42.4863C49.7321 41.9759 49.9011 41.3168 50.4133 41.014C51.9178 40.1251 53.6846 39.6221 55.5229 39.5589C56.1207 39.5412 56.6167 40.0026 56.6372 40.5958C56.6577 41.1889 56.1921 41.6862 55.5971 41.7066C54.1192 41.7573 52.7068 42.1573 51.5123 42.8628C51.3401 42.9647 51.1508 43.0132 50.9639 43.0132Z" fill="#FFE4BB"/>
<path d="M39.9332 42.9424C35.3317 42.9424 31.7627 38.986 31.7627 35.5826C31.7627 32.0659 35.428 29.2046 39.9332 29.2046C44.4385 29.2046 48.1038 32.0656 48.1038 35.5826C48.1038 38.986 44.5347 42.9424 39.9332 42.9424ZM39.9332 31.3537C36.6164 31.3537 33.9184 33.2506 33.9184 35.5826C33.9184 37.9426 36.6013 40.7933 39.9332 40.7933C43.2652 40.7933 45.9482 37.9426 45.9482 35.5826C45.9482 33.2506 43.2497 31.3537 39.9332 31.3537Z" fill="#FFE4BB"/>
<path d="M60.1799 82.041H46.4809C45.2093 82.041 44.1748 81.0097 44.1748 79.742V66.085C44.1748 64.8173 45.2093 63.7859 46.4809 63.7859H60.1799C61.4515 63.7859 62.4862 64.8173 62.4862 66.085V79.742C62.4864 81.0097 61.4517 82.041 60.1799 82.041ZM46.4809 65.935C46.398 65.935 46.3305 66.0023 46.3305 66.085V79.742C46.3305 79.8247 46.398 79.892 46.4809 79.892H60.1799C60.2631 79.892 60.3305 79.8247 60.3305 79.742V66.085C60.3305 66.0023 60.2631 65.935 60.1799 65.935H46.4809Z" fill="#FF8F8F"/>
<path d="M81.6935 82.041H67.9946C66.723 82.041 65.6885 81.0097 65.6885 79.742V66.085C65.6885 64.8173 66.723 63.7859 67.9946 63.7859H81.6935C82.9651 63.7859 83.9999 64.8173 83.9999 66.085V79.742C83.9999 81.0097 82.9653 82.041 81.6935 82.041ZM67.9946 65.935C67.9116 65.935 67.8442 66.0023 67.8442 66.085V79.742C67.8442 79.8247 67.9116 79.892 67.9946 79.892H81.6935C81.7767 79.892 81.8442 79.8247 81.8442 79.742V66.085C81.8442 66.0023 81.7767 65.935 81.6935 65.935H67.9946Z" fill="#FF8F8F"/>
<path d="M71.2132 65.9351H57.5142C56.2425 65.9351 55.208 64.9038 55.208 63.636V49.9791C55.208 48.7114 56.2425 47.6801 57.5142 47.6801H71.2132C72.4849 47.6801 73.5194 48.7114 73.5194 49.9791V63.636C73.5194 64.9038 72.4849 65.9351 71.2132 65.9351ZM57.5142 49.8291C57.4312 49.8291 57.3637 49.8964 57.3637 49.9791V63.636C57.3637 63.7188 57.4312 63.786 57.5142 63.786H71.2132C71.2962 63.786 71.3637 63.7188 71.3637 63.636V49.9791C71.3637 49.8964 71.2962 49.8291 71.2132 49.8291H57.5142Z" fill="#FF8F8F"/>
<path d="M74.9569 49.8292H61.2578C59.9862 49.8292 58.9517 48.7979 58.9517 47.5302V33.8732C58.9517 32.6055 59.9862 31.5742 61.2578 31.5742H74.9569C76.2285 31.5742 77.263 32.6055 77.263 33.8732V47.5302C77.263 48.7979 76.2287 49.8292 74.9569 49.8292ZM61.2578 33.723C61.1748 33.723 61.1073 33.7903 61.1073 33.873V47.53C61.1073 47.6127 61.1748 47.68 61.2578 47.68H74.9569C75.0399 47.68 75.1073 47.6127 75.1073 47.53V33.873C75.1073 33.7903 75.0399 33.723 74.9569 33.723H61.2578Z" fill="#FF8F8F"/>
</svg>
