<svg width="96" height="96" viewBox="0 0 96 96" fill="none" xmlns="http://www.w3.org/2000/svg">
<path d="M30.7323 62.8116C30.1384 62.8116 29.6572 62.3314 29.6572 61.7376V61.7354C29.6572 61.6242 29.6744 61.514 29.7082 61.4082C30.315 59.5102 31.6449 57.721 33.0528 55.8265C34.1017 54.4153 35.1864 52.9556 36.0697 51.3361C38.0034 47.7902 42.6912 48.2609 47.2242 48.7161C48.8364 48.878 50.5037 49.0455 52.0589 49.0455C53.4496 49.0455 54.9046 48.8333 56.3119 48.6279C59.1732 48.211 62.1316 47.779 64.5026 49.2188C69.5945 52.3112 72.9531 56.0678 74.2157 60.0821C74.3937 60.6485 74.0791 61.2521 73.5125 61.4303C72.9453 61.609 72.3424 61.2933 72.1644 60.7272C71.0764 57.2682 67.9591 53.8335 63.3865 51.0563C61.6769 50.0182 59.2222 50.3762 56.6222 50.7555C55.1392 50.9718 53.6055 51.1957 52.0586 51.1957C50.3957 51.1957 48.6741 51.0226 47.009 50.8555C42.823 50.4354 39.2079 50.0718 37.9571 52.3654C37.0016 54.1171 35.8712 55.6382 34.7783 57.1089C33.4862 58.8473 32.2656 60.4898 31.7633 62.0403C31.6322 62.486 31.2202 62.8116 30.7323 62.8116Z" fill="#FF8F8F"/>
<path d="M52.06 51.1949C51.4661 51.1949 50.9849 50.7137 50.9849 50.1198V47.8927C50.9849 41.5535 53.8551 35.6854 58.8597 31.7934L63.076 28.5133C63.5451 28.1486 64.2203 28.2331 64.5848 28.7016C64.9492 29.1704 64.8652 29.8457 64.3964 30.2104L60.1799 33.4907C55.7028 36.9725 53.135 42.2218 53.135 47.8927V50.1198C53.135 50.7137 52.6538 51.1949 52.06 51.1949Z" fill="#FF8F8F"/>
<path d="M52.0598 49.393C51.4659 49.393 50.9847 48.9118 50.9847 48.3179V39.4527C50.9847 32.8542 47.4674 26.9676 41.5755 23.706L39.43 22.5185C38.9105 22.231 38.7226 21.5767 39.0103 21.0572C39.2975 20.5375 39.9517 20.3491 40.4716 20.6375L42.617 21.825C49.203 25.4706 53.1349 32.0608 53.1349 39.4527V48.3179C53.1349 48.9118 52.6537 49.393 52.0598 49.393Z" fill="#FF8F8F"/>
<path d="M22.5782 64.2472C22.131 64.2472 21.7134 63.966 21.561 63.5192C21.3689 62.9573 21.6691 62.3462 22.2309 62.1544C22.5133 62.0579 22.8139 62.0039 23.1239 61.994L29.6142 61.8689C29.6213 61.8687 29.6284 61.8687 29.6355 61.8687C30.2197 61.8687 30.6986 62.3366 30.71 62.9229C30.7214 63.5168 30.2494 64.0073 29.6559 64.0187L23.1796 64.1433C23.0964 64.1461 23.0063 64.1616 22.9257 64.1892C22.8106 64.2287 22.6934 64.2472 22.5782 64.2472Z" fill="#FFE4BB"/>
<path d="M57.7364 79.422H23.2103C22.8704 79.422 22.538 79.3659 22.2223 79.2551C21.6622 79.0586 21.3672 78.4448 21.5639 77.8846C21.7607 77.3245 22.3748 77.0295 22.9344 77.2263C23.0205 77.2566 23.1133 77.2718 23.2101 77.2718H57.7362C59.0188 77.2718 60.276 76.9179 61.3717 76.2483L79.967 64.8756C80.6996 64.4279 81.2678 63.7383 81.5667 62.9337C81.7295 62.4953 81.6906 62.024 81.4573 61.6058C81.2139 61.17 80.7941 60.8642 80.3058 60.7668C77.6461 60.2372 74.8639 60.6483 72.4721 61.9245L63.8694 66.5123C63.3457 66.7912 62.6943 66.5933 62.4148 66.0693C62.1355 65.5453 62.3338 64.8943 62.8578 64.6148L71.4602 60.0269C74.2892 58.5177 77.5798 58.0309 80.7257 58.6581C81.8329 58.8785 82.7839 59.5709 83.3348 60.5576C83.8723 61.5207 83.9625 62.6594 83.5821 63.6827C83.1159 64.9373 82.2302 66.0124 81.0881 66.7101L62.4929 78.0829C61.0596 78.9591 59.4149 79.422 57.7364 79.422Z" fill="#FFE4BB"/>
<path d="M57.7336 70.5515C57.4775 70.5515 57.2227 70.5378 56.9767 70.5107C52.4486 70.0118 44.8219 69.1689 44.8219 69.1689L45.0581 67.0319C45.0583 67.0319 52.6845 67.8748 57.2126 68.3736C57.3805 68.3921 57.556 68.4015 57.7336 68.4015C59.2026 68.4015 60.612 67.7029 61.5033 66.533C61.7323 66.2327 61.9101 65.8968 62.0318 65.5345C62.1548 65.1735 62.2165 64.7992 62.2165 64.4173C62.2165 63.3534 61.419 62.463 60.3613 62.3464L38.9762 60.0008C35.6888 59.6422 32.5141 60.9884 30.4839 63.6036C30.1201 64.0726 29.4449 64.1579 28.9753 63.7935C28.5064 63.4295 28.4215 62.7541 28.7855 62.285C31.2773 59.0754 35.1732 57.4232 39.21 57.8635L60.5961 60.2094C62.7459 60.4463 64.3664 62.2555 64.3664 64.4173C64.3664 65.0359 64.266 65.6439 64.068 66.2243C63.8728 66.8048 63.5849 67.3486 63.2131 67.8361C61.9181 69.5364 59.8696 70.5515 57.7336 70.5515Z" fill="#FFE4BB"/>
<path d="M20.0879 81.9998H15.5656C13.5995 81.9998 12 80.4003 12 78.4342V63.2853C12 61.3191 13.5995 59.7196 15.5656 59.7196H20.0879C22.054 59.7196 23.6536 61.3191 23.6536 63.2853V78.4342C23.6536 80.4001 22.054 81.9998 20.0879 81.9998ZM15.5656 61.8696C14.7851 61.8696 14.1502 62.5045 14.1502 63.285V78.434C14.1502 79.2145 14.7851 79.8494 15.5656 79.8494H20.0879C20.8684 79.8494 21.5034 79.2145 21.5034 78.434V63.285C21.5034 62.5045 20.8684 61.8696 20.0879 61.8696H15.5656Z" fill="#FFE4BB"/>
<path d="M65.5786 39.4423C65.1161 39.4423 64.6482 39.4068 64.1782 39.3337L54.7148 37.8632C54.4286 37.8189 54.1728 37.6608 54.0044 37.4252C53.8365 37.1893 53.7704 36.8958 53.8216 36.6109L55.3612 28.0351C56.0226 24.351 58.8236 21.5065 62.4972 20.7884L74.9906 18.3462C75.9124 18.1669 76.8325 18.48 77.4519 19.1854C78.0714 19.8911 78.2634 20.8441 77.9658 21.7345L74.1011 33.2911C72.8555 37.0176 69.3999 39.4423 65.5786 39.4423ZM56.1326 35.9076L64.5083 37.2091C67.8221 37.7232 70.999 35.7893 72.062 32.609L75.9268 21.0524C75.9997 20.8346 75.9014 20.6781 75.8365 20.6039C75.7715 20.5299 75.6292 20.4119 75.4032 20.4562L62.9098 22.8983C60.1135 23.4449 57.9812 25.6104 57.4776 28.4148L56.1326 35.9076Z" fill="#FF8F8F"/>
<path d="M39.8836 32.5996C36.6527 32.5996 33.6702 30.879 32.0535 27.9913L25.8341 16.8841C25.3752 16.0644 25.3862 15.0926 25.8633 14.2837C26.3379 13.4791 27.1769 13 28.1101 13C28.1148 13 28.1197 13 28.1244 13L40.3102 13.0649C44.7153 13.0884 48.4319 16.2601 49.1479 20.6067L50.7042 30.0563C50.7513 30.3419 50.6812 30.6345 50.5096 30.8678C50.3382 31.1009 50.0798 31.2553 49.7931 31.2955L41.1651 32.5093C40.7355 32.5699 40.3071 32.5996 39.8836 32.5996ZM28.1103 15.1502C27.8826 15.1502 27.7652 15.2915 27.7153 15.376C27.6654 15.4609 27.5978 15.6331 27.7103 15.8337L33.9295 26.9409C35.3215 29.4272 38.0437 30.7766 40.8658 30.3801L48.4039 29.3197L47.0265 20.9561C46.4817 17.6472 43.6524 15.233 40.2992 15.2151L28.1135 15.1502C28.1122 15.1502 28.1111 15.1502 28.1103 15.1502Z" fill="#FF8F8F"/>
</svg>
